<svg width="1200" height="630" viewBox="0 0 1200 630" xmlns="http://www.w3.org/2000/svg">
  <defs>
    <linearGradient id="bg" x1="0" y1="0" x2="1" y2="1">
      <stop offset="0%" stop-color="#0F0E0C"/>
      <stop offset="100%" stop-color="#1A1714"/>
    </linearGradient>
  </defs>

  <!-- Background -->
  <rect width="1200" height="630" fill="url(#bg)"/>

  <!-- Subtle grain overlay lines -->
  <rect x="0" y="0" width="1200" height="1" fill="#2A2520" opacity="0.6"/>
  <rect x="0" y="629" width="1200" height="1" fill="#2A2520" opacity="0.6"/>

  <!-- Left accent bar -->
  <rect x="0" y="0" width="4" height="630" fill="#C4622D"/>

  <!-- Logo -->
  <text x="80" y="120" font-family="Georgia, serif" font-size="52" font-style="italic" font-weight="700" fill="#F4EFE6" letter-spacing="-1">Advance</text>
  <text x="80" y="148" font-family="monospace" font-size="13" fill="#C4622D" letter-spacing="4">AI ✦ TOUR MANAGEMENT</text>

  <!-- Divider -->
  <rect x="80" y="172" width="60" height="1" fill="#2A2520"/>

  <!-- Main headline -->
  <text x="80" y="240" font-family="Georgia, serif" font-size="48" font-weight="700" fill="#F4EFE6">Drop a doc.</text>
  <text x="80" y="300" font-family="Georgia, serif" font-size="48" font-style="italic" fill="#6A6058">Your tour builds itself.</text>

  <!-- Sub copy -->
  <text x="80" y="366" font-family="Georgia, serif" font-size="22" fill="#4A4540">AI reads itineraries, flights, hotels and worksheets.</text>
  <text x="80" y="398" font-family="Georgia, serif" font-size="22" fill="#4A4540">Builds and updates the tour automatically.</text>

  <!-- Feature pills -->
  <rect x="80" y="440" width="180" height="36" rx="18" fill="#1E1C18" stroke="#2A2520" stroke-width="1"/>
  <text x="170" y="463" font-family="monospace" font-size="11" fill="#6A6058" text-anchor="middle" letter-spacing="1">✕ MASTER TOUR</text>

  <rect x="276" y="440" width="200" height="36" rx="18" fill="#1E1C18" stroke="#2A2520" stroke-width="1"/>
  <text x="376" y="463" font-family="monospace" font-size="11" fill="#6A6058" text-anchor="middle" letter-spacing="1">✕ SPREADSHEETS</text>

  <rect x="492" y="440" width="210" height="36" rx="18" fill="#1E1C18" stroke="#2A2520" stroke-width="1"/>
  <text x="597" y="463" font-family="monospace" font-size="11" fill="#6A6058" text-anchor="middle" letter-spacing="1">✕ PDF DAY SHEETS</text>

  <rect x="718" y="440" width="220" height="36" rx="18" fill="#1E1C18" stroke="#2A2520" stroke-width="1"/>
  <text x="828" y="463" font-family="monospace" font-size="11" fill="#6A6058" text-anchor="middle" letter-spacing="1">✕ EMAIL THREADS</text>

  <!-- URL -->
  <text x="80" y="570" font-family="monospace" font-size="16" fill="#3A3530" letter-spacing="2">GETADVANCE.CO</text>

  <!-- Right side - mock UI preview -->
  <rect x="820" y="60" width="340" height="520" rx="12" fill="#1A1714" stroke="#2A2520" stroke-width="1"/>

  <!-- Mock header -->
  <rect x="820" y="60" width="340" height="44" rx="12" fill="#111"/>
  <rect x="820" y="92" width="340" height="12" fill="#111"/>
  <circle cx="850" cy="82" r="10" fill="#C4622D" opacity="0.9"/>
  <rect x="870" y="76" width="80" height="12" rx="4" fill="#2A2520"/>

  <!-- Mock tour tabs -->
  <rect x="840" y="124" width="90" height="28" rx="14" fill="#C4622D"/>
  <rect x="940" y="124" width="110" height="28" rx="14" fill="#1E1C18" stroke="#2A2520" stroke-width="1"/>

  <!-- Mock show rows -->
  <rect x="840" y="172" width="300" height="72" rx="8" fill="#111" stroke="#2A2520" stroke-width="1"/>
  <rect x="855" y="187" width="28" height="28" rx="4" fill="#1A1714"/>
  <text x="869" y="200" font-family="Georgia, serif" font-size="9" fill="#5A5450" text-anchor="middle">FRI</text>
  <text x="869" y="213" font-family="Georgia, serif" font-size="14" font-weight="700" fill="#F4EFE6" text-anchor="middle">15</text>
  <rect x="894" y="190" width="1" height="32" fill="#2A2520"/>
  <rect x="903" y="192" width="120" height="8" rx="3" fill="#2A2520"/>
  <rect x="903" y="206" width="80" height="6" rx="3" fill="#1E1C18"/>
  <rect x="903" y="218" width="60" height="5" rx="2" fill="#1E1C18"/>

  <rect x="840" y="254" width="300" height="72" rx="8" fill="#111" stroke="#2A2520" stroke-width="1"/>
  <rect x="855" y="269" width="28" height="28" rx="4" fill="#1A1714"/>
  <text x="869" y="282" font-family="Georgia, serif" font-size="9" fill="#5A5450" text-anchor="middle">SAT</text>
  <text x="869" y="295" font-family="Georgia, serif" font-size="14" font-weight="700" fill="#F4EFE6" text-anchor="middle">16</text>
  <rect x="894" y="272" width="1" height="32" fill="#2A2520"/>
  <rect x="903" y="274" width="140" height="8" rx="3" fill="#2A2520"/>
  <rect x="903" y="288" width="90" height="6" rx="3" fill="#1E1C18"/>
  <rect x="903" y="300" width="55" height="5" rx="2" fill="#1E1C18"/>

  <rect x="840" y="336" width="300" height="72" rx="8" fill="#111" stroke="#2A2520" stroke-width="1"/>
  <rect x="855" y="351" width="28" height="28" rx="4" fill="#1A1714"/>
  <text x="869" y="364" font-family="Georgia, serif" font-size="9" fill="#5A5450" text-anchor="middle">MON</text>
  <text x="869" y="377" font-family="Georgia, serif" font-size="14" font-weight="700" fill="#F4EFE6" text-anchor="middle">20</text>
  <rect x="894" y="354" width="1" height="32" fill="#2A2520"/>
  <rect x="903" y="356" width="105" height="8" rx="3" fill="#2A2520"/>
  <rect x="903" y="370" width="70" height="6" rx="3" fill="#1E1C18"/>

  <!-- AI badge -->
  <rect x="840" y="428" width="300" height="40" rx="8" fill="#1E1C18" stroke="#C4622D" stroke-width="1"/>
  <text x="990" y="453" font-family="monospace" font-size="11" fill="#C4622D" text-anchor="middle" letter-spacing="2">✦ AI POWERED</text>
</svg>
